<svg height="40" viewBox="0 0 29 40" width="29" xmlns="http://www.w3.org/2000/svg"><g fill="none" fill-rule="evenodd"><path d="m0 14.3067719c0 7.9008064 14.5 25.6932281 14.5 25.6932281s14.5-17.7918437 14.5-25.6926501c0-7.90196246-6.4924848-14.3073499-14.5-14.3073499-8.00810101 0-14.5 6.40538744-14.5 14.3067719z" fill="#10c3ab"/><g fill="#fff" stroke="#fff" stroke-width=".5" transform="translate(5 4)"><path d="m18.2064009 7.34033738h-17.41280177c-.02061296 1.45398047-.0257662 2.80230842 0 4.25125772h1.58204503v-2.3193252h14.24871164v2.3193252h1.5820451c.0154597-1.4841669 0-2.76709081 0-4.25125772zm.7935991-.76975437v5.79579759h-3.16409v-2.3193253h-12.66666671v1.9520569.3722995h-.38133985-2.4065636-.38133984v-.3722995-5.04113647-.38236164z"/><path d="m8.31217792 0v6.18822137l-.79359913.01006215-.03091945-5.42349808h-.72660699l-.53078384 5.42349808h-.76267968l.67507458-6.19828352zm4.42148088 0 .7214538 6.19828352h-.7626797l-.6338487-5.42349808h-.5823162v5.418467h-.7935992v-6.19325244z"/><path d="m8.31217792 10.4344481v6.5655519h-3.95768918l.58746949-6.570583h.75752645l-.5513968 5.8008286h2.37564415v-5.7957975z"/><path d="m10.6878221 10.4344481v6.5655519h3.9576892l-.5823163-6.570583h-.7626797l.5513968 5.8008286h-2.3704909v-5.7957975z"/></g></g></svg>