<svg xmlns="http://www.w3.org/2000/svg" width="20" height="28" fill="none" viewBox="0 0 20 28">
  <path fill="#10C3AB" fill-rule="evenodd" d="M10 0C4.477 0 0 4.484 0 10.015 0 15.545 10 28 10 28s10-12.454 10-17.985C20 4.484 15.522 0 10 0Z" clip-rule="evenodd"/>
  <path fill="#fff" fill-rule="evenodd" d="M4.857 9h10.286v-.857H4.857V9Zm6.857 5.143V9.857h1.424l.29 4.286h-1.714Zm-3.428 0H6.57l.291-4.286h1.424v4.286ZM7.724 3.857h1.419v3.429H7.429l.295-3.429Zm3.133 0h1.403l.311 3.429h-1.714V3.857Zm4.8 3.429h-2.263l-.308-3.977A.338.338 0 0 0 12.743 3h-1.886a.344.344 0 0 0-.343.343v3.943H9.486V3.343A.344.344 0 0 0 9.143 3H7.257a.35.35 0 0 0-.343.309l-.308 3.977H4.343A.344.344 0 0 0 4 7.629v2.742c0 .189.154.343.343.343a.344.344 0 0 0 .343-.343v-.685h1.748l-.377 4.937c0 .086.017.188.086.257a.349.349 0 0 0 .257.103h2.743a.344.344 0 0 0 .343-.343V9.686h1.028v4.971c0 .189.155.343.343.343H13.6a.349.349 0 0 0 .257-.103.298.298 0 0 0 .086-.257l-.377-4.954h1.748v.685c0 .189.155.343.343.343a.344.344 0 0 0 .343-.343V7.63a.344.344 0 0 0-.343-.343Z" clip-rule="evenodd"/>
  <path fill="#fff" d="M4.857 9h-.1v.1h.1V9Zm10.286 0v.1h.1V9h-.1Zm0-.857h.1v-.1h-.1v.1Zm-10.286 0v-.1h-.1v.1h.1Zm6.857 6h-.1v.1h.1v-.1Zm0-4.286v-.1h-.1v.1h.1Zm1.424 0 .1-.007-.006-.093h-.094v.1Zm.29 4.286v.1h.108l-.008-.107-.1.007Zm-5.142 0v.1h.1v-.1h-.1Zm-1.715 0-.1-.007-.007.107h.107v-.1Zm.291-4.286v-.1h-.093l-.007.093.1.007Zm1.424 0h.1v-.1h-.1v.1Zm-.562-6v-.1h-.092l-.007.092.1.008Zm1.419 0h.1v-.1h-.1v.1Zm0 3.429v.1h.1v-.1h-.1Zm-1.714 0-.1-.009-.01.109h.11v-.1Zm3.428-3.429v-.1h-.1v.1h.1Zm1.403 0 .1-.009-.009-.09h-.091v.1Zm.311 3.429v.1h.11l-.01-.11-.1.01Zm-1.714 0h-.1v.1h.1v-.1Zm2.537 0-.1.007.008.093h.092v-.1Zm-.308-3.977.1-.008v-.002l-.1.01Zm-2.572 3.977v.1h.1v-.1h-.1Zm-1.028 0h-.1v.1h.1v-.1ZM6.914 3.309l-.1-.01V3.3l.1.008Zm-.308 3.977v.1h.092l.007-.093-.1-.007Zm-1.92 2.4v-.1h-.1v.1h.1Zm1.748 0 .1.007.008-.107h-.108v.1Zm-.377 4.937-.1-.008v.008h.1Zm3.429-4.937v-.1h-.1v.1h.1Zm1.028 0h.1v-.1h-.1v.1Zm3.429 4.954-.1.008.002.012.098-.02Zm-.377-4.954v-.1h-.108l.008.107.1-.007Zm1.748 0h.1v-.1h-.1v.1ZM4.857 9.1h10.286v-.2H4.857v.2ZM15.243 9v-.857h-.2V9h.2Zm-.1-.957H4.857v.2h10.286v-.2Zm-10.386.1V9h.2v-.857h-.2Zm7.057 6V9.857h-.2v4.286h.2Zm-.1-4.186h1.424v-.2h-1.424v.2Zm1.324-.093.29 4.286.2-.014-.29-4.286-.2.014Zm.39 4.179h-1.714v.2h1.715v-.2Zm-5.142 0H6.57v.2h1.715v-.2Zm-1.615.107.29-4.286-.199-.014-.29 4.286.2.014Zm.191-4.193h1.424v-.2H6.862v.2Zm1.324-.1v4.286h.2V9.857h-.2Zm-.462-5.9h1.419v-.2H7.724v.2Zm1.319-.1v3.429h.2V3.857h-.2Zm.1 3.329H7.429v.2h1.714v-.2Zm-1.615.108.296-3.428-.2-.017-.295 3.428.2.017Zm3.33-3.337h1.402v-.2h-1.403v.2Zm1.302-.09.312 3.428.199-.018-.312-3.429-.199.018Zm.411 3.319h-1.714v.2h1.714v-.2Zm-1.614.1V3.857h-.2v3.429h.2Zm4.7-.1h-2.263v.2h2.263v-.2Zm-2.163.092-.309-3.977-.199.015.309 3.977.199-.015Zm-.309-3.98a.438.438 0 0 0-.442-.398v.2c.135 0 .23.096.243.219l.2-.02Zm-.442-.398h-1.886v.2h1.886v-.2Zm-1.886 0c-.244 0-.443.2-.443.443h.2c0-.133.11-.243.243-.243v-.2Zm-.443.443v3.943h.2V3.343h-.2Zm.1 3.843H9.486v.2h1.028v-.2Zm-.928.1V3.343h-.2v3.943h.2Zm0-3.943c0-.244-.2-.443-.443-.443v.2c.133 0 .243.11.243.243h.2ZM9.143 2.9H7.257v.2h1.886v-.2Zm-1.886 0a.45.45 0 0 0-.442.399l.199.02a.25.25 0 0 1 .243-.219v-.2Zm-.442.4-.309 3.978.2.015.308-3.977-.2-.015Zm-.21 3.886H4.344v.2h2.263v-.2Zm-2.262 0a.444.444 0 0 0-.443.443h.2c0-.134.11-.243.243-.243v-.2Zm-.443.443v2.742h.2V7.63h-.2Zm0 2.742c0 .244.2.443.443.443v-.2a.244.244 0 0 1-.243-.243h-.2Zm.443.443a.444.444 0 0 0 .443-.443h-.2c0 .134-.11.243-.243.243v.2Zm.443-.443v-.685h-.2v.685h.2Zm-.1-.585h1.748v-.2H4.686v.2Zm1.649-.108-.378 4.937.2.015.377-4.937-.2-.015Zm-.378 4.945c0 .093.018.23.115.328l.142-.142c-.04-.04-.057-.108-.057-.186h-.2Zm.115.328c.089.088.2.132.328.132v-.2a.25.25 0 0 1-.186-.074l-.142.142Zm.328.132h2.743v-.2H6.4v.2Zm2.743 0c.244 0 .443-.2.443-.443h-.2c0 .133-.11.243-.243.243v.2Zm.443-.443V9.686h-.2v4.954h.2Zm-.1-4.854h1.028v-.2H9.486v.2Zm.928-.1v4.971h.2V9.686h-.2Zm0 4.971c0 .244.2.443.443.443v-.2a.244.244 0 0 1-.243-.243h-.2Zm.443.443H13.6v-.2h-2.743v.2Zm2.743 0a.45.45 0 0 0 .328-.132l-.142-.142a.25.25 0 0 1-.186.074v.2Zm.328-.132a.398.398 0 0 0 .113-.348l-.196.04a.199.199 0 0 1-.059.166l.142.142Zm.115-.336-.378-4.954-.199.015.377 4.955.2-.016Zm-.477-4.846h1.748v-.2h-1.748v.2Zm1.648-.1v.685h.2v-.685h-.2Zm0 .685c0 .244.2.443.443.443v-.2a.244.244 0 0 1-.243-.243h-.2Zm.443.443a.444.444 0 0 0 .443-.443h-.2c0 .134-.11.243-.243.243v.2Zm.443-.443V7.63h-.2v2.742h.2Zm0-2.742c0-.244-.2-.443-.443-.443v.2c.133 0 .243.11.243.243h.2Z"/>
  <path fill="#10C3AB" fill-rule="evenodd" d="M10 0C4.477 0 0 4.484 0 10.015 0 15.545 10 28 10 28s10-12.454 10-17.985C20 4.484 15.522 0 10 0Z" clip-rule="evenodd"/>
  <path fill="#fff" fill-rule="evenodd" d="M4.857 9h10.286v-.857H4.857V9Zm6.857 5.143V9.857h1.424l.29 4.286h-1.714Zm-3.428 0H6.57l.291-4.286h1.424v4.286ZM7.724 3.857h1.419v3.429H7.429l.295-3.429Zm3.133 0h1.403l.311 3.429h-1.714V3.857Zm4.8 3.429h-2.263l-.308-3.977A.338.338 0 0 0 12.743 3h-1.886a.344.344 0 0 0-.343.343v3.943H9.486V3.343A.344.344 0 0 0 9.143 3H7.257a.35.35 0 0 0-.343.309l-.308 3.977H4.343A.344.344 0 0 0 4 7.629v2.742c0 .189.154.343.343.343a.344.344 0 0 0 .343-.343v-.685h1.748l-.377 4.937c0 .086.017.188.086.257a.349.349 0 0 0 .257.103h2.743a.344.344 0 0 0 .343-.343V9.686h1.028v4.971c0 .189.155.343.343.343H13.6a.349.349 0 0 0 .257-.103.298.298 0 0 0 .086-.257l-.377-4.954h1.748v.685c0 .189.155.343.343.343a.344.344 0 0 0 .343-.343V7.63a.344.344 0 0 0-.343-.343Z" clip-rule="evenodd"/>
  <path fill="#fff" d="M4.857 9h-.1v.1h.1V9Zm10.286 0v.1h.1V9h-.1Zm0-.857h.1v-.1h-.1v.1Zm-10.286 0v-.1h-.1v.1h.1Zm6.857 6h-.1v.1h.1v-.1Zm0-4.286v-.1h-.1v.1h.1Zm1.424 0 .1-.007-.006-.093h-.094v.1Zm.29 4.286v.1h.108l-.008-.107-.1.007Zm-5.142 0v.1h.1v-.1h-.1Zm-1.715 0-.1-.007-.007.107h.107v-.1Zm.291-4.286v-.1h-.093l-.007.093.1.007Zm1.424 0h.1v-.1h-.1v.1Zm-.562-6v-.1h-.092l-.007.092.1.008Zm1.419 0h.1v-.1h-.1v.1Zm0 3.429v.1h.1v-.1h-.1Zm-1.714 0-.1-.009-.01.109h.11v-.1Zm3.428-3.429v-.1h-.1v.1h.1Zm1.403 0 .1-.009-.009-.09h-.091v.1Zm.311 3.429v.1h.11l-.01-.11-.1.01Zm-1.714 0h-.1v.1h.1v-.1Zm2.537 0-.1.007.008.093h.092v-.1Zm-.308-3.977.1-.008v-.002l-.1.01Zm-2.572 3.977v.1h.1v-.1h-.1Zm-1.028 0h-.1v.1h.1v-.1ZM6.914 3.309l-.1-.01V3.3l.1.008Zm-.308 3.977v.1h.092l.007-.093-.1-.007Zm-1.92 2.4v-.1h-.1v.1h.1Zm1.748 0 .1.007.008-.107h-.108v.1Zm-.377 4.937-.1-.008v.008h.1Zm3.429-4.937v-.1h-.1v.1h.1Zm1.028 0h.1v-.1h-.1v.1Zm3.429 4.954-.1.008.002.012.098-.02Zm-.377-4.954v-.1h-.108l.008.107.1-.007Zm1.748 0h.1v-.1h-.1v.1ZM4.857 9.1h10.286v-.2H4.857v.2ZM15.243 9v-.857h-.2V9h.2Zm-.1-.957H4.857v.2h10.286v-.2Zm-10.386.1V9h.2v-.857h-.2Zm7.057 6V9.857h-.2v4.286h.2Zm-.1-4.186h1.424v-.2h-1.424v.2Zm1.324-.093.29 4.286.2-.014-.29-4.286-.2.014Zm.39 4.179h-1.714v.2h1.715v-.2Zm-5.142 0H6.57v.2h1.715v-.2Zm-1.615.107.29-4.286-.199-.014-.29 4.286.2.014Zm.191-4.193h1.424v-.2H6.862v.2Zm1.324-.1v4.286h.2V9.857h-.2Zm-.462-5.9h1.419v-.2H7.724v.2Zm1.319-.1v3.429h.2V3.857h-.2Zm.1 3.329H7.429v.2h1.714v-.2Zm-1.615.108.296-3.428-.2-.017-.295 3.428.2.017Zm3.33-3.337h1.402v-.2h-1.403v.2Zm1.302-.09.312 3.428.199-.018-.312-3.429-.199.018Zm.411 3.319h-1.714v.2h1.714v-.2Zm-1.614.1V3.857h-.2v3.429h.2Zm4.7-.1h-2.263v.2h2.263v-.2Zm-2.163.092-.309-3.977-.199.015.309 3.977.199-.015Zm-.309-3.98a.438.438 0 0 0-.442-.398v.2c.135 0 .23.096.243.219l.2-.02Zm-.442-.398h-1.886v.2h1.886v-.2Zm-1.886 0c-.244 0-.443.2-.443.443h.2c0-.133.11-.243.243-.243v-.2Zm-.443.443v3.943h.2V3.343h-.2Zm.1 3.843H9.486v.2h1.028v-.2Zm-.928.1V3.343h-.2v3.943h.2Zm0-3.943c0-.244-.2-.443-.443-.443v.2c.133 0 .243.11.243.243h.2ZM9.143 2.9H7.257v.2h1.886v-.2Zm-1.886 0a.45.45 0 0 0-.442.399l.199.02a.25.25 0 0 1 .243-.219v-.2Zm-.442.4-.309 3.978.2.015.308-3.977-.2-.015Zm-.21 3.886H4.344v.2h2.263v-.2Zm-2.262 0a.444.444 0 0 0-.443.443h.2c0-.134.11-.243.243-.243v-.2Zm-.443.443v2.742h.2V7.63h-.2Zm0 2.742c0 .244.2.443.443.443v-.2a.244.244 0 0 1-.243-.243h-.2Zm.443.443a.444.444 0 0 0 .443-.443h-.2c0 .134-.11.243-.243.243v.2Zm.443-.443v-.685h-.2v.685h.2Zm-.1-.585h1.748v-.2H4.686v.2Zm1.649-.108-.378 4.937.2.015.377-4.937-.2-.015Zm-.378 4.945c0 .093.018.23.115.328l.142-.142c-.04-.04-.057-.108-.057-.186h-.2Zm.115.328c.089.088.2.132.328.132v-.2a.25.25 0 0 1-.186-.074l-.142.142Zm.328.132h2.743v-.2H6.4v.2Zm2.743 0c.244 0 .443-.2.443-.443h-.2c0 .133-.11.243-.243.243v.2Zm.443-.443V9.686h-.2v4.954h.2Zm-.1-4.854h1.028v-.2H9.486v.2Zm.928-.1v4.971h.2V9.686h-.2Zm0 4.971c0 .244.2.443.443.443v-.2a.244.244 0 0 1-.243-.243h-.2Zm.443.443H13.6v-.2h-2.743v.2Zm2.743 0a.45.45 0 0 0 .328-.132l-.142-.142a.25.25 0 0 1-.186.074v.2Zm.328-.132a.398.398 0 0 0 .113-.348l-.196.04a.199.199 0 0 1-.059.166l.142.142Zm.115-.336-.378-4.954-.199.015.377 4.955.2-.016Zm-.477-4.846h1.748v-.2h-1.748v.2Zm1.648-.1v.685h.2v-.685h-.2Zm0 .685c0 .244.2.443.443.443v-.2a.244.244 0 0 1-.243-.243h-.2Zm.443.443a.444.444 0 0 0 .443-.443h-.2c0 .134-.11.243-.243.243v.2Zm.443-.443V7.63h-.2v2.742h.2Zm0-2.742c0-.244-.2-.443-.443-.443v.2c.133 0 .243.11.243.243h.2Z"/>
  <path fill="#7344F9" fill-rule="evenodd" d="M10 0C4.477 0 0 4.484 0 10.015 0 15.545 10 28 10 28s10-12.454 10-17.985C20 4.484 15.522 0 10 0Z" clip-rule="evenodd"/>
  <path stroke="#fff" d="M16.778 11.889H3L5.713 7h8.139l2.926 4.889Z"/>
  <path stroke="#fff" d="M5.222 7.223 7.667 11 9.82 7.653l2.291 3.57 2-3.57"/>
</svg>
