<svg height="40" viewBox="0 0 29 40" width="29" xmlns="http://www.w3.org/2000/svg"><g fill="none" fill-rule="evenodd"><path d="m0 14.3067719c0 7.9008064 14.5 25.6932281 14.5 25.6932281s14.5-17.7918437 14.5-25.6926501c0-7.90196246-6.4924848-14.3073499-14.5-14.3073499-8.00810101 0-14.5 6.40538744-14.5 14.3067719z" fill="#f14407"/><path d="m13.276511 12.3345668-.1290885.072949-5.29272279-5.26465866-.75216577.67549625 5.33204976 5.30386161-.0648445.1141623c-.1409466.2490031-.231909.5188282-.2704854.8020082l-.0153105.1122955-.1125772.0351821c-.720344.2247346-1.4345337.5119354-2.12545748.7896586-1.29373713.5202642-2.51587517 1.0115211-3.57935441 1.0115211-.5690402 0-.9433969-.3137668-1.11286311-.9325409l-.0616923-.2250218h1.40541371v-.9901248h-1.45554809l.00810556-.1868241c.19663483-4.58817613 3.95236019-8.30756992 8.73569022-8.65163646l.2017383-.01464724v1.68701742h1.0433655v-1.68644302l.2018884.01464724c2.1054938.15350882 4.0470751.95120901 5.6147501 2.30694032l.1465005.12665555-1.1828111 1.1320019.7301006.69875951 1.1659996-1.11505705.13134.15365242c1.3045446 1.52776458 2.038698 3.37705041 2.1230558 5.34810941l.0081056.1868241h-1.4490937v.9921352l1.388302.0147908-.0682968.2266014c-.1868782.6199229-.581799.9211965-1.2072779.9211965-1.120068 0-2.3999957-.5030321-3.7546746-1.0355024-.5975598-.2347866-1.2152333-.4776149-1.8312557-.6808095l-.1149789-.0379105-.0108074-.1157419c-.1112262-1.1835544-1.172604-2.1106386-2.4162068-2.1106386-.4324465 0-.8573879.1110031-1.2288927.3210905zm1.223489 3.3437352c-.7668759 0-1.3907036-.5960853-1.3907036-1.3288781 0-.733798.6238277-1.3307448 1.3907036-1.3307448s1.3908537.5969468 1.3908537 1.3307448c0 .7327928-.6239778 1.3288781-1.3908537 1.3288781m8.1279234 1.321698c1.6404749 0 2.3720766-.9112881 2.3720766-2.9548653 0-5.53881076-4.71038-10.0451347-10.5-10.0451347-5.78962003 0-10.5 4.50632394-10.5 10.0451347 0 2.0381204.6973782 2.9471109 2.2611505 2.9471109 1.19496941 0 2.4812014-.5186846 3.8429352-1.0679561.6374871-.2570447 1.2967392-.5228491 1.9480358-.731644l.1615107-.0518398.0694977.14877c.3910181.8377647 1.2611648 1.3791382 2.2168701 1.3791382.9195305 0 1.7757176-.513515 2.1812957-1.308056l.0732503-.143744.157608.0531322c.5603343.1888345 1.1323765.4151487 1.6856559.6339957 1.3618839.5387887 2.7702997 1.0959582 4.0301135 1.0959582z" fill="#fff" stroke="#fff" stroke-width=".6"/></g></svg>