<?xml version="1.0" standalone="no"?>
<!DOCTYPE svg PUBLIC "-//W3C//DTD SVG 20010904//EN"
 "http://www.w3.org/TR/2001/REC-SVG-20010904/DTD/svg10.dtd">
<svg version="1.0" xmlns="http://www.w3.org/2000/svg"
 width="700.000000pt" height="700.000000pt" viewBox="0 0 700.000000 700.000000"
 preserveAspectRatio="xMidYMid meet">
<metadata>
Created by potrace 1.14, written by Peter Selinger 2001-2017
</metadata>
<g transform="translate(0.000000,700.000000) scale(0.100000,-0.100000)"
fill="#000000" stroke="none">
<path d="M10 3500 l0 -3500 3495 0 3495 0 0 3500 0 3500 -3495 0 -3495 0 0
-3500z m5796 1906 c-27 -298 -228 -570 -504 -682 -158 -63 -24 -59 -1807 -59
-1516 0 -1624 1 -1684 18 -152 42 -257 98 -363 196 -154 142 -243 322 -264
534 l-7 67 2318 0 2318 0 -7 -74z m4 -1520 c0 -49 -25 -171 -49 -240 -87 -249
-309 -447 -581 -519 l-85 -22 -1600 0 -1600 0 -85 22 c-346 92 -590 374 -626
726 l-6 67 2316 0 2316 0 0 -34z m-4 -1590 c-29 -326 -246 -597 -566 -708
l-95 -33 -1645 0 -1645 0 -75 23 c-159 50 -263 116 -377 236 -84 88 -143 187
-181 301 -23 69 -47 218 -38 240 5 13 261 15 2317 15 l2312 0 -7 -74z"/>
</g>
</svg>
