<?xml version="1.0" encoding="UTF-8"?>
<svg width="100%" height="100%" viewBox="0 0 20 28" version="1.1" xmlns="http://www.w3.org/2000/svg" xmlns:xlink="http://www.w3.org/1999/xlink">
    <title>pin-bridge</title>
    <g id="Styleguide" stroke="none" stroke-width="1" fill="none" fill-rule="evenodd">
        <g id="ESMART-Styleguide" transform="translate(-682.000000, -1039.000000)">
            <g id="Bridge" transform="translate(682.000000, 1038.000000)">
                <g id="pin-bridge" transform="translate(0.000000, 1.000000)">
                    <path d="M10,0 C4.47717172,0 0,4.48377121 0,10.0147403 C0,15.5453048 10,28 10,28 C10,28 20,15.5457094 20,10.0151449 C20,4.48377121 15.5224242,0 10,0" id="Path" fill="#10C3AB"></path>
                    <path d="M4.68571429,9 L15.3142857,9 L15.3142857,7.97142857 L4.68571429,7.97142857 L4.68571429,9 Z M11.2,14.3142857 L11.2,9.68571429 L12.88,9.68571429 L13.2228571,14.3142857 L11.2,14.3142857 Z M8.8,14.3142857 L6.77714286,14.3142857 L7.12,9.68571429 L8.8,9.68571429 L8.8,14.3142857 Z M7.56571429,3.68571429 L8.8,3.68571429 L8.8,7.28571429 L7.30857143,7.28571429 L7.56571429,3.68571429 Z M11.2,3.68571429 L12.4342857,3.68571429 L12.7085714,7.28571429 L11.2,7.28571429 L11.2,3.68571429 Z M15.6571429,7.28571429 L13.3942857,7.28571429 L13.0857143,3.30857143 C13.0685714,3.13714286 12.9314286,3 12.7428571,3 L10.8571429,3 C10.6685714,3 10.5142857,3.15428571 10.5142857,3.34285714 L10.5142857,7.28571429 L9.48571429,7.28571429 L9.48571429,3.34285714 C9.48571429,3.15428571 9.33142857,3 9.14285714,3 L7.25714286,3 C7.08571429,3 6.93142857,3.13714286 6.91428571,3.30857143 L6.60571429,7.28571429 L4.34285714,7.28571429 C4.15428571,7.28571429 4,7.44 4,7.62857143 L4,10.3714286 C4,10.56 4.15428571,10.7142857 4.34285714,10.7142857 C4.53142857,10.7142857 4.68571429,10.56 4.68571429,10.3714286 L4.68571429,9.68571429 L6.43428571,9.68571429 L6.05714286,14.6228571 C6.05714286,14.7085714 6.07428571,14.8114286 6.14285714,14.88 C6.21142857,14.9485714 6.29714286,14.9828571 6.4,14.9828571 L9.14285714,14.9828571 C9.33142857,14.9828571 9.48571429,14.8285714 9.48571429,14.64 L9.48571429,9.68571429 L10.5142857,9.68571429 L10.5142857,14.6571429 C10.5142857,14.8457143 10.6685714,15 10.8571429,15 L13.6,15 C13.7028571,15 13.7885714,14.9657143 13.8571429,14.8971429 C13.9257143,14.8285714 13.96,14.7257143 13.9428571,14.64 L13.5657143,9.68571429 L15.3142857,9.68571429 L15.3142857,10.3714286 C15.3142857,10.56 15.4685714,10.7142857 15.6571429,10.7142857 C15.8457143,10.7142857 16,10.56 16,10.3714286 L16,7.62857143 C16,7.44 15.8457143,7.28571429 15.6571429,7.28571429 L15.6571429,7.28571429 Z" id="Fill-1" stroke="#FFFFFF" stroke-width="0.2" fill="#FFFFFF"></path>
                </g>
            </g>
        </g>
    </g>
</svg>