<?xml version="1.0" encoding="UTF-8"?>
<svg width="100%" height="100%" viewBox="0 0 20 28" version="1.1" xmlns="http://www.w3.org/2000/svg" xmlns:xlink="http://www.w3.org/1999/xlink">
    <title>pin-overspeed</title>
    <g id="Styleguide" stroke="none" stroke-width="1" fill="none" fill-rule="evenodd">
        <g id="ESMART-Styleguide" transform="translate(-710.000000, -1280.000000)">
            <g id="OverSpeed" transform="translate(710.000000, 1279.000000)">
                <g id="pin-overspeed" transform="translate(0.000000, 1.000000)">
                    <path d="M10,0 C4.47717172,0 0,4.48377121 0,10.0147403 C0,15.5453048 10,28 10,28 C10,28 20,15.5457094 20,10.0151449 C20,4.48377121 15.5224242,0 10,0" id="Path" fill="#F14407"></path>
                    <path d="M10.0036025,8.54779132 C9.71530478,8.54779132 9.43201052,8.62463962 9.18434069,8.77008472 L9.09828168,8.82058788 L6.29415885,5.86505982 L5.792715,6.33271106 L8.62305581,9.3153796 L8.57982617,9.39441505 C8.48586173,9.5668018 8.42522015,9.75360382 8.39950252,9.94965149 L8.38929552,10.0273945 L8.31424405,10.0517514 C7.83401475,10.2073369 7.35788827,10.4061682 6.89727242,10.5984381 C6.03478099,10.958621 5.2200223,11.298722 4.51103614,11.298722 C4.13167601,11.298722 3.88210487,11.0814987 3.7691274,10.6531167 L3.7279992,10.4973323 L4.66494167,10.4973323 L4.66494167,9.81186139 L3.69457628,9.81186139 L3.69997999,9.68252162 C3.83106988,6.50609197 6.33488678,3.93112704 9.52377344,3.69292713 L9.65826567,3.68278673 L9.65826567,4.85072187 L10.3538426,4.85072187 L10.3538426,3.68318439 L10.4884349,3.69332479 C11.8920974,3.79960013 13.186485,4.3518541 14.2316017,5.29043732 L14.3292686,5.37812193 L13.5407279,6.16181555 L14.0274617,6.64557214 L14.8047947,5.87360956 L14.8923548,5.97998431 C15.7620511,7.03766749 16.2514867,8.31794232 16.3077253,9.68252162 L16.313129,9.81186139 L15.3470666,9.81186139 L15.3470666,10.4987242 L16.2726012,10.508964 L16.22707,10.6658419 C16.1024846,11.0950193 15.839204,11.3035933 15.4222181,11.3035933 C14.6755061,11.3035933 13.822221,10.9553403 12.9191017,10.586707 C12.5207285,10.4241624 12.1089461,10.2560505 11.6982645,10.1153774 L11.621612,10.0891317 L11.614407,10.0090026 C11.5402562,9.1896188 10.832671,8.54779132 10.0036025,8.54779132 M10,11.0849783 C9.48874943,11.0849783 9.07286425,10.6723039 9.07286425,10.1649858 C9.07286425,9.6569718 9.48874943,9.24370091 10,9.24370091 C10.5112506,9.24370091 10.9272358,9.6569718 10.9272358,10.1649858 C10.9272358,10.6723039 10.5112506,11.0849783 10,11.0849783 M12.7318733,11.2412597 C13.6397959,11.6142673 14.5787397,12 15.4186156,12 C16.5122656,12 17,11.3691082 17,9.95432403 C17,6.11976273 13.8597467,3 10,3 C6.14025332,3 3,6.11976273 3,9.95432403 C3,11.3653304 3.4649188,11.9946316 4.50743367,11.9946316 C5.30407994,11.9946316 6.16156793,11.6355422 7.06939044,11.2552773 C7.49438186,11.0773233 7.93388323,10.8933049 8.36808097,10.7487545 L8.4757548,10.7128655 L8.52208657,10.8158601 C8.78276532,11.3958511 9.36286311,11.7706481 10,11.7706481 C10.6130204,11.7706481 11.1838118,11.4151377 11.4541972,10.8650709 L11.5030306,10.7655558 L11.6081027,10.8023396 C11.9816589,10.9330712 12.3630204,11.0897502 12.7318733,11.2412597" id="Fill-2" stroke="#FFFFFF" stroke-width="0.5" fill="#FFFFFF"></path>
                </g>
            </g>
        </g>
    </g>
</svg>