<?xml version="1.0" encoding="UTF-8"?>
<svg width="17px" height="17px" viewBox="0 0 17 17" version="1.1" xmlns="http://www.w3.org/2000/svg" xmlns:xlink="http://www.w3.org/1999/xlink">
    <title>icon-date</title>
    <g id="Styleguide" stroke="none" stroke-width="1" fill="none" fill-rule="evenodd">
        <g id="ESMART-Styleguide" transform="translate(-288.000000, -2828.000000)" fill="#000000">
            <g id="DROPDOWN" transform="translate(113.000000, 2247.000000)">
                <g id="Group-12" transform="translate(0.000000, 526.000000)">
                    <g id="Select-date-Copy" transform="translate(24.000000, 45.000000)">
                        <path d="M162.2701,22.0315 C161.8846,22.032 161.5616,22.324 161.5236,22.708 C161.5206,22.7325 161.5191,22.758 161.5191,22.7825 C161.5191,23.1685 161.8116,23.491 162.1956,23.5295 C162.2201,23.532 162.2451,23.5335 162.2701,23.534 C162.6851,23.534 163.0211,23.1975 163.0211,22.7825 C163.0211,22.368 162.6851,22.0315 162.2701,22.0315 L162.2701,22.0315 Z M159.2656,22.0315 C158.8506,22.0315 158.5141,22.368 158.5141,22.7825 C158.5141,23.1975 158.8506,23.534 159.2656,23.534 C159.6801,23.534 160.0166,23.1975 160.0166,22.7825 C160.0166,22.368 159.6801,22.0315 159.2656,22.0315 L159.2656,22.0315 Z M156.2606,22.0315 C155.8461,22.0315 155.5096,22.368 155.5096,22.7825 C155.5096,23.1975 155.8461,23.534 156.2606,23.534 C156.6761,23.534 157.0121,23.1975 157.0121,22.7825 C157.0121,22.368 156.6761,22.0315 156.2606,22.0315 L156.2606,22.0315 Z M162.2701,19.027 C161.8846,19.0275 161.5616,19.3195 161.5236,19.7035 C161.5206,19.7285 161.5191,19.753 161.5191,19.778 C161.5191,20.164 161.8116,20.4865 162.1956,20.525 C162.2201,20.5275 162.2451,20.529 162.2701,20.5295 C162.6851,20.5295 163.0211,20.193 163.0211,19.778 C163.0211,19.3635 162.6851,19.027 162.2701,19.027 L162.2701,19.027 Z M159.2656,19.027 C158.8506,19.027 158.5141,19.3635 158.5141,19.778 C158.5141,20.193 158.8506,20.5295 159.2656,20.5295 C159.6801,20.5295 160.0166,20.193 160.0166,19.778 C160.0166,19.3635 159.6801,19.027 159.2656,19.027 L159.2656,19.027 Z M156.2606,19.027 C155.8461,19.027 155.5096,19.3635 155.5096,19.778 C155.5096,20.193 155.8461,20.5295 156.2606,20.5295 C156.6761,20.5295 157.0121,20.193 157.0121,19.778 C157.0121,19.3635 156.6761,19.027 156.2606,19.027 L156.2606,19.027 Z M152.5021,17.5245 L166.0276,17.5245 L166.0276,24.285 C166.0276,24.714 165.7021,25.039 165.2736,25.039 L153.2581,25.039 C152.8286,25.039 152.5021,24.714 152.5021,24.285 L152.5021,17.5245 Z M153.2581,13.018 L155.5086,13.018 L155.5086,13.772 C155.5176,14.187 155.8616,14.5155 156.2761,14.5065 C156.6781,14.4975 157.0016,14.174 157.0106,13.772 L157.0106,13.018 L158.5126,13.018 L158.5126,13.772 C158.5126,14.1875 158.8496,14.5235 159.2646,14.5235 C159.6801,14.5235 160.0166,14.1875 160.0166,13.772 L160.0166,13.018 L161.5191,13.018 L161.5191,13.772 C161.5096,14.187 161.8386,14.5305 162.2536,14.54 C162.6686,14.549 163.0121,14.22 163.0211,13.805 C163.0216,13.794 163.0216,13.783 163.0211,13.772 L163.0211,13.018 L165.2736,13.018 C165.7021,13.018 166.0276,13.343 166.0276,13.772 L166.0276,16.0225 L152.5021,16.0225 L152.5021,13.772 C152.5021,13.343 152.8286,13.018 153.2581,13.018 L153.2581,13.018 Z M156.2506,10 C155.8361,10.005 155.5036,10.345 155.5086,10.76 L155.5086,10.766 L155.5086,11.514 L153.2581,11.514 C152.0226,11.514 151.0001,12.5365 151.0001,13.772 L151.0001,24.285 C151.0001,25.5205 152.0226,26.5415 153.2581,26.5415 L165.2736,26.5415 C166.5091,26.5415 167.5301,25.5205 167.5301,24.285 L167.5301,13.772 C167.5301,12.5365 166.5091,11.514 165.2736,11.514 L163.0211,11.514 L163.0211,10.766 C163.0296,10.351 162.6996,10.0085 162.2846,10 L162.2571,10 C161.8426,10.0075 161.5116,10.3495 161.5191,10.7645 L161.5191,10.766 L161.5191,11.514 L160.0166,11.514 L160.0166,10.766 C160.0251,10.351 159.6951,10.0085 159.2806,10.0005 C159.2726,10 159.2646,10 159.2571,10 C158.8421,10.004 158.5091,10.344 158.5126,10.7585 L158.5126,10.766 L158.5126,11.514 L157.0106,11.514 L157.0106,10.766 C157.0186,10.351 156.6891,10.0085 156.2741,10.0005 C156.2661,10 156.2586,10 156.2506,10 L156.2506,10 Z" id="icon-date"></path>
                    </g>
                </g>
            </g>
        </g>
    </g>
</svg>