<?xml version="1.0" encoding="UTF-8"?>
<svg width="19px" height="15px" viewBox="0 0 19 15" version="1.1" xmlns="http://www.w3.org/2000/svg" xmlns:xlink="http://www.w3.org/1999/xlink">
    <title>icon-reset</title>
    <g id="Styleguide" stroke="none" stroke-width="1" fill="none" fill-rule="evenodd">
        <g id="ESMART-Styleguide" transform="translate(-227.000000, -4768.000000)" fill="#000000">
            <g id="Group-10" transform="translate(227.000000, 4757.000000)">
                <g id="BTN-Copy-2" transform="translate(0.000000, 5.000000)">
                    <g id="icon-reset" transform="translate(0.000000, 6.199962)">
                        <path d="M13.08012,3.49005796 C14.31992,4.73005796 14.78012,6.49005796 14.45992,8.09005796 L13.48012,7.11005796 L12.05992,8.53005796 L15.51992,11.990058 L18.98012,8.53005796 L17.55992,7.11005796 L16.45992,8.21005796 C16.84012,6.03005796 16.18012,3.73005796 14.50012,2.07005796 C12.11992,-0.309942045 8.48012,-0.629942045 5.74012,1.07005796 L7.22012,2.55005796 C9.12012,1.57005796 11.50012,1.89005796 13.08012,3.49005796" id="Fill-1"></path>
                        <path d="M13.26,13.070138 L11.7802,11.590138 C9.8802,12.549938 7.5,12.230138 5.9,10.649938 C4.66,9.41013796 4.2,7.65013796 4.52,6.05013796 L5.5,7.03013796 L6.92,5.61013796 L3.46,2.15013796 L0,5.61013796 L1.42,7.03013796 L2.52,5.93013796 C2.16,8.11013796 2.82,10.410138 4.5,12.070138 C6.88,14.449938 10.52,14.790138 13.26,13.070138" id="Fill-4"></path>
                    </g>
                </g>
            </g>
        </g>
    </g>
</svg>