<?xml version="1.0" encoding="UTF-8"?>
<svg width="14px" height="16px" viewBox="0 0 14 16" version="1.1" xmlns="http://www.w3.org/2000/svg" xmlns:xlink="http://www.w3.org/1999/xlink">
    <title>Fill 1</title>
    <g id="Styleguide" stroke="none" stroke-width="1" fill="none" fill-rule="evenodd" opacity="0.301553416">
        <g id="ESMART-Styleguide" transform="translate(-362.000000, -7566.000000)" fill="#FFFFFF">
            <g id="MENU-GAUCHE" transform="translate(341.000000, 7136.000000)">
                <path d="M27.9998891,435 C29.6554821,435 31,436.344296 31,438.000111 C31,439.655704 29.6554821,441 27.9998891,441 C26.3440745,441 25,439.655704 25,438.000111 C25,436.344296 26.3440745,435 27.9998891,435 Z M26.9744469,445.921282 C26.8203311,445.893016 26.6601912,445.740483 26.6165167,445.581284 L26.2106451,444.097561 C26.1669706,443.938095 26.0218909,443.741297 25.8866004,443.658364 L24.4159745,442.756503 C24.2806839,442.673304 24.0482552,442.641037 23.8974025,442.683704 L22.5121176,443.078368 C22.3612649,443.121301 22.1569485,443.053035 22.0562964,442.926369 C21.6692499,442.439172 21.2294929,441.627978 21.0279376,441.046648 C20.9739719,440.890916 21.0178974,440.667451 21.1258287,440.547451 L22.1674907,439.393593 C22.2754219,439.27386 22.3632729,439.041862 22.3632729,438.875729 L22.3632729,437.071741 C22.3632729,436.905876 22.2736649,436.675744 22.1632236,436.558412 L21.1248247,435.455486 C21.0143834,435.338153 20.9687009,435.116554 21.0226665,434.960822 C21.0708591,434.82189 21.2525851,434.408026 21.4709577,434.006429 C21.6940992,433.596031 21.9463571,433.214434 22.0417382,433.093635 C22.1418884,432.966436 22.3464557,432.895236 22.4983124,432.934969 L23.9802335,433.321633 C24.1318392,433.3611 24.3650209,433.3259 24.5003114,433.242967 L25.9706863,432.34084 C26.1059769,432.257907 26.2487975,432.060308 26.289209,431.900043 L26.6637053,430.414986 C26.7041168,430.25472 26.8619976,430.102188 27.0161133,430.074455 C27.5821248,429.973122 28.4538578,429.973922 29.0349295,430.084855 C29.1887943,430.114188 29.3461731,430.268054 29.3868356,430.428319 L29.7578178,431.900043 C29.7982293,432.060308 29.9413009,432.257907 30.0763405,432.34084 L31.5467154,433.242967 C31.6820059,433.3259 31.9144346,433.358433 32.0652873,433.3155 L33.4505722,432.921103 C33.601676,432.878169 33.8057413,432.946169 33.9063935,433.072835 C34.3100061,433.580565 34.7587993,434.418692 34.9633666,435.027222 C35.0158262,435.183754 34.9688887,435.405886 34.8584474,435.523218 L33.8840542,436.558412 C33.7733619,436.675744 33.6837539,436.905876 33.6837539,437.071741 L33.6837539,438.875729 C33.6837539,439.041862 33.7733619,439.271727 33.8840542,439.389059 L34.8730056,440.439719 C34.9834468,440.557318 35.0308864,440.779717 34.9789288,440.936249 C34.9214491,441.109581 34.7279259,441.558111 34.4917322,441.993042 C34.2685906,442.403439 34.0163327,442.78477 33.9209516,442.905836 C33.8208015,443.033035 33.6164851,443.101568 33.4658834,443.058635 L32.1496243,442.683704 C31.9985206,442.641037 31.7663429,442.673304 31.6310523,442.756503 L30.1606774,443.658364 C30.0253869,443.741297 29.8825663,443.938629 29.8421548,444.099161 L29.4761926,445.550085 C29.4357811,445.710617 29.2784023,445.866349 29.1252906,445.897816 C28.5181146,446.022348 27.600197,446.036481 26.9744469,445.921282 Z" id="Fill-1"></path>
            </g>
        </g>
    </g>
</svg>