<svg width="16" height="16" xmlns="http://www.w3.org/2000/svg">
    <path d="M11.724 10.482a.887.887 0 0 1 0 1.254.86.86 0 0 1-.626.264.834.834 0 0 1-.626-.264L8 9.26l-2.488 2.476a.86.86 0 0 1-.626.264.834.834 0 0 1-.626-.264.887.887 0 0 1 0-1.254L6.748 7.99 4.26 5.514a.887.887 0 0 1 0-1.254.884.884 0 0 1 1.252 0L8 6.752l2.488-2.492a.884.884 0 0 1 1.252 0 .887.887 0 0 1 0 1.254L9.252 8.006l2.472 2.476zM8 0a7.99 7.99 0 0 0-8 8c0 4.427 3.573 8 8 8s8-3.573 8-8-3.573-8-8-8z" fill="#FFF" fill-rule="evenodd" opacity=".3"/>
</svg>
