<?xml version="1.0" encoding="UTF-8"?>
<svg width="18px" height="13px" viewBox="0 0 18 13" version="1.1" xmlns="http://www.w3.org/2000/svg" xmlns:xlink="http://www.w3.org/1999/xlink">
    <title>mail</title>
    <g id="Desktop" stroke="none" stroke-width="1" fill="none" fill-rule="evenodd">
        <g id="ESMART-USER-Profil" transform="translate(-1318.000000, -29.000000)" fill="#061638">
            <g id="Infos" transform="translate(1260.000000, 16.000000)">
                <g id="mail" transform="translate(58.000000, 13.000000)">
                    <path d="M9.34385234,9.44809928 C9.22274486,9.56983125 9.05948199,9.6381023 8.88943138,9.6381023 C8.71866627,9.6381023 8.55540339,9.56983125 8.43501042,9.44809928 L0.0628758559,0.982127823 C0.0378684132,1.08652112 0,1.18657975 0,1.29928117 L0,11.6999603 C0,12.4180706 0.575171182,13 1.28538255,13 L16.7142602,13 C17.4233998,13 18,12.4184318 18,11.6999603 L18,1.29928117 C18,1.12119848 17.9639178,0.950340244 17.8988985,0.796820686 L9.34385234,9.44809928 Z" id="Fill-1"></path>
                    <path d="M8.88928848,8.06898794 L16.8430843,0.0263692416 C16.7977136,0.0216733493 16.7602024,0 16.7141173,0 L1.2855969,0 C1.17520691,0 1.07446264,0.0372059163 0.971574873,0.0632139354 L8.88928848,8.06898794 Z" id="Fill-4"></path>
                </g>
            </g>
        </g>
    </g>
</svg>