<?xml version="1.0" encoding="UTF-8"?>
<svg width="16px" height="16px" viewBox="0 0 16 16" version="1.1" xmlns="http://www.w3.org/2000/svg" xmlns:xlink="http://www.w3.org/1999/xlink">
    <title>phone</title>
    <g id="Desktop" stroke="none" stroke-width="1" fill="none" fill-rule="evenodd">
        <g id="ESMART-USER-Profil" transform="translate(-1271.000000, -27.000000)" fill="#061638">
            <g id="Infos" transform="translate(1260.000000, 16.000000)">
                <path d="M12.1524718,11.0001435 C11.9486503,10.9956958 11.75643,11.0949177 11.6086144,11.2629548 C11.4395966,11.4547971 11.3163836,11.7298578 11.2461762,12.0755342 C10.4438916,16.0158042 11.6080144,20.2717438 14.6589362,23.3280186 C14.6611364,23.3302191 14.6631366,23.3322196 14.6653369,23.33422 C17.7210592,26.3910949 21.9749079,27.5565523 25.9165237,26.753775 C26.2615601,26.6833595 26.536189,26.5653334 26.7290094,26.3974964 C26.9218297,26.2296593 27.0322414,25.9964078 26.9916371,25.7597555 L26.4351784,22.5466461 C26.3901736,22.2853884 26.2149552,22.0753421 26.0039329,21.9215081 C25.7931107,21.7678742 25.5444844,21.6680521 25.3038591,21.6464474 L22.9536111,21.4340005 L22.9474105,21.4340005 C22.5289663,21.3761877 22.2297348,21.4279991 22.0161122,21.6028377 C21.8012896,21.7786766 21.6954784,22.0431349 21.5722654,22.3592047 C21.5698652,22.3632056 21.568065,22.3674065 21.5660648,22.3716075 L21.2534318,23.5342642 L20.4721494,23.2968117 L20.4659487,23.2968117 C19.0135955,22.903925 17.9858871,22.2897894 16.790561,21.196348 C15.7038464,20.005285 15.0945821,18.981659 14.7027408,17.5329391 C14.7027408,17.5309387 14.7027408,17.5287382 14.7027408,17.5267378 L14.4651157,16.7453652 L15.6216377,16.4326962 C15.6278384,16.4310958 15.634039,16.4288954 15.6402397,16.4264948 C15.955873,16.3032676 16.2133002,16.196444 16.3903188,15.9825968 C16.5663374,15.7701499 16.6231434,15.4698836 16.5653373,15.0511912 L16.5653373,15.0449898 L16.3467142,12.6882695 C16.3251119,12.4480164 16.230502,12.1983613 16.0778859,11.9881149 C15.9250697,11.7776684 15.7136474,11.6018296 15.4528199,11.5566196 L12.240081,11.0064981 C12.2104779,11.001497 12.1816749,11.0010969 12.1524718,11.0001435 Z" id="phone"></path>
            </g>
        </g>
    </g>
</svg>