<?xml version="1.0" encoding="UTF-8"?>
<svg width="15px" height="12px" viewBox="0 0 15 12" version="1.1" xmlns="http://www.w3.org/2000/svg" xmlns:xlink="http://www.w3.org/1999/xlink">
    <title>icon vehicle</title>
    <g id="Styleguide" stroke="none" stroke-width="1" fill="none" fill-rule="evenodd" opacity="0.3">
        <g id="ESMART-Styleguide" transform="translate(-361.000000, -7445.000000)" fill="#FFFFFF">
            <g id="MENU-GAUCHE" transform="translate(341.000000, 7136.000000)">
                <g id="icon-vehicle" transform="translate(27.500000, 315.000000) scale(-1, 1) translate(-27.500000, -315.000000) translate(20.000000, 309.000000)">
                    <path d="M11.2460021,10.4965012 C10.8342217,10.4965012 10.494403,10.1606131 10.494403,9.74475175 C10.494403,9.32889037 10.8302639,8.99296235 11.2460021,8.99296235 C11.6617804,8.99296235 11.9976013,9.32889037 11.9976013,9.74475175 C11.9976013,10.1606131 11.6577825,10.4965012 11.2460021,10.4965012 L11.2460021,10.4965012 Z M3.75,10.4965012 C3.33821962,10.4965012 2.99840085,10.1606131 2.99840085,9.74475175 C2.99840085,9.32889037 3.33422175,8.99296235 3.75,8.99296235 C4.16577825,8.99296235 4.50159915,9.32889037 4.50159915,9.74475175 C4.50159915,10.1606131 4.16178038,10.4965012 3.75,10.4965012 L3.75,10.4965012 Z M1.49920043,5.99800067 L1.49920043,5.12229257 L3.62206823,2.99900033 L4.49760128,2.99900033 L4.49760128,5.99800067 L1.49920043,5.99800067 Z M5.24920043,0 L5.24920043,1.49950017 L2.99840085,1.49950017 L0,4.4985005 L0,9.74875042 L1.49920043,9.74875042 C1.49920043,10.9922959 2.50266525,12 3.75,12 C4.99333689,12 6.00079957,10.9963346 6.00079957,9.74875042 L8.99920043,9.74875042 C8.99920043,10.9922959 10.0026652,12 11.25004,12 C12.4933369,12 13.5007996,10.9963346 13.5007996,9.74875042 L15,9.74875042 L15,0 L5.24920043,0 Z" id="Fill-1"></path>
                </g>
            </g>
        </g>
    </g>
</svg>