<?xml version="1.0" encoding="UTF-8"?>
<svg width="18px" height="18px" viewBox="0 0 18 18" version="1.1" xmlns="http://www.w3.org/2000/svg" xmlns:xlink="http://www.w3.org/1999/xlink">
    <title>icon-search</title>
    <g id="Styleguide" stroke="none" stroke-width="1" fill="none" fill-rule="evenodd">
        <g id="ESMART-Styleguide" transform="translate(-617.000000, -2983.000000)" fill="#000000">
            <g id="DROPDOWN" transform="translate(113.000000, 2247.000000)">
                <g id="Group-12" transform="translate(0.000000, 526.000000)">
                    <g id="Search-Vehicle-Copy-2" transform="translate(342.000000, 180.000000)">
                        <g id="Group-6" transform="translate(21.000000, 20.000000)">
                            <path d="M157.1186,26.11864 C156.98876,26.24848 156.81612,26.32 156.63252,26.32 C156.44884,26.32 156.2762,26.24848 156.14632,26.11864 L152.7112,22.68348 C153.0654,22.39108 153.39116,22.0654 153.68356,21.71112 L157.11868,25.14628 C157.24852,25.27616 157.32004,25.4488 157.32004,25.63244 C157.32004,25.81616 157.24848,25.98876 157.1186,26.11864 L157.1186,26.11864 Z M142.44,17.16 C142.44,14.00596 145.00596,11.44 148.16,11.44 C151.31404,11.44 153.88,14.00596 153.88,17.16 C153.88,20.31404 151.31404,22.88 148.16,22.88 C145.00596,22.88 142.44,20.31404 142.44,17.16 L142.44,17.16 Z M154.49752,20.48876 C155.02232,19.49368 155.32,18.361 155.32,17.16 C155.32,13.21196 152.10804,10 148.16,10 C144.21196,10 141,13.21196 141,17.16 C141,21.10804 144.21196,24.32 148.16,24.32 C149.36104,24.32 150.49368,24.02232 151.48876,23.49748 L155.12808,27.1368 C155.52992,27.53872 156.06416,27.76 156.63252,27.76 C157.2008,27.76 157.73504,27.53868 158.13684,27.13688 C158.53868,26.73504 158.76,26.2008 158.76,25.63248 C158.76,25.0642 158.53872,24.52996 158.13684,24.12812 L154.49752,20.48876 Z" id="icon-search"></path>
                        </g>
                    </g>
                </g>
            </g>
        </g>
    </g>
</svg>