<?xml version="1.0" encoding="UTF-8"?>
<svg width="1287px" height="1004px" viewBox="0 0 1287 1004" version="1.1" xmlns="http://www.w3.org/2000/svg" xmlns:xlink="http://www.w3.org/1999/xlink">
    <title>Bandes</title>
    <defs>
        <linearGradient x1="4.44821621%" y1="87.4940044%" x2="87.9665352%" y2="4.69659058%" id="linearGradient-1">
            <stop stop-color="#1B63FF" offset="0%"></stop>
            <stop stop-color="#399CFF" offset="100%"></stop>
        </linearGradient>
    </defs>
    <g id="Desktop" stroke="none" stroke-width="1" fill="none" fill-rule="evenodd">
        <g id="Bandes" transform="translate(0.281682, 0.000000)" fill="url(#linearGradient-1)">
            <path d="M0,666.868613 L613.868613,53 L654.289322,93.4207087 C693.341751,132.473138 693.341751,195.789636 654.289322,234.842065 L181.842065,707.289322 C142.789636,746.341751 79.4731379,746.341751 40.4207087,707.289322 L0,666.868613 L0,666.868613 Z" id="Rectangle-Copy-4"></path>
            <path d="M448,613.868613 L1061.86861,0 L1102.28932,40.4207087 C1141.34175,79.4731379 1141.34175,142.789636 1102.28932,181.842065 L629.842065,654.289322 C590.789636,693.341751 527.473138,693.341751 488.420709,654.289322 L448,613.868613 L448,613.868613 Z" id="Rectangle-Copy-13"></path>
            <path d="M561,892.868613 L1174.86861,279 L1215.28932,319.420709 C1254.34175,358.473138 1254.34175,421.789636 1215.28932,460.842065 L742.842065,933.289322 C703.789636,972.341751 640.473138,972.341751 601.420709,933.289322 L561,892.868613 L561,892.868613 Z" id="Rectangle-Copy-14"></path>
        </g>
    </g>
</svg>