<svg height="28" viewBox="0 0 249 28" width="249" xmlns="http://www.w3.org/2000/svg"><g fill="#fff" fill-rule="evenodd"><path d="m26.125547 5.82135849h-20.48000648c-3.11813773 0-5.64554052-2.60664151-5.64554052-5.82135849h31.7710875c0 3.21471698-2.5279151 5.82135849-5.6455405 5.82135849"/><path d="m235.937739 0h-5.646053-13.062774c0 3.21471698 2.527916 5.82135849 5.646053 5.82135849h7.416721v22.17864151h5.646053v-22.17864151h7.417233c3.117625 0 5.645028-2.60664151 5.645028-5.82135849z"/><path d="m148.535201 5.82135849h20.480519c3.118137 0 5.645028-2.60664151 5.645028-5.82135849h-26.125547-5.645541v11.0895849 5.8213585 11.0890566h5.645541v-11.0890566h20.480519v11.0890566h5.645028v-11.0890566-3.7313962-2.0899623h-26.125547z"/><path d="m26.125547 16.9107849h-20.48000648c-3.11813773 0-5.64554052-2.6066415-5.64554052-5.8213585h31.7710875c0 3.214717-2.5279151 5.8213585-5.6455405 5.8213585"/><path d="m47.4394478 16.9107849h-4.8790709c-3.1176254 0-5.6455405-2.6066415-5.6455405-5.8213585h16.1701519c0 3.214717-2.5279151 5.8213585-5.6455405 5.8213585"/><path d="m26.125547 28h-20.48000648c-3.11813773 0-5.64554052-2.6061132-5.64554052-5.8213585h31.7710875c0 3.2152453-2.5279151 5.8213585-5.6455405 5.8213585"/><path d="m63.857524 5.82135849h20.4800065c3.1181377 0 5.6450281-2.60664151 5.6450281-5.82135849h-26.1250346-5.6460529v11.0895849 3.7308679 2.0904906h26.1260594v5.2676981h-20.4800065c-3.1181377 0-5.6460529 2.6066415-5.6460529 5.8213585h26.1260594 5.6450281v-11.0890566-3.7313962-2.0899623h-26.1250346z"/><path d="m132.269753 0h-2.408027l-13.312286 13.7263396-13.311261-13.7263396h-2.351156-5.6450278v5.82135849 22.17864151h5.6450278v-22.17864151h.012297l13.321508 13.73690571h1.765544 1.127161 1.76452l13.322021-13.73690571h.069679v22.17864151h5.646053v-22.17864151-5.82135849z"/><path d="m204.066232 28h7.983887l-10.754142-11.0890566h4.861651c3.117625 0 5.64554-2.6066415 5.64554-5.8213585v-11.0895849h-5.64554-26.125547c0 3.21471698 2.527403 5.82135849 5.645028 5.82135849h20.480519v1.72279245h-.001537v.92664151c0 1.44596227-1.137408 2.61879245-2.539699 2.61879245h-1.628748-21.955563v2.0899623 3.7313962 11.0890566h5.645028v-11.0890566h7.63498z"/></g></svg>