<?xml version="1.0" standalone="no"?>
<!DOCTYPE svg PUBLIC "-//W3C//DTD SVG 20010904//EN"
 "http://www.w3.org/TR/2001/REC-SVG-20010904/DTD/svg10.dtd">
<svg version="1.0" xmlns="http://www.w3.org/2000/svg"
 width="1162.000000pt" height="128.000000pt" viewBox="0 0 1162.000000 128.000000"
 preserveAspectRatio="xMidYMid meet">

<g transform="translate(0.000000,128.000000) scale(0.100000,-0.100000)"
fill="#000000" stroke="none">
<path d="M0 1267 c0 -7 7 -37 16 -66 18 -61 69 -123 128 -154 41 -22 48 -22
600 -25 646 -3 635 -4 716 77 45 45 80 119 80 168 0 11 -139 13 -770 13 -631
0 -770 -2 -770 -13z"/>
<path d="M2810 895 l0 -385 635 0 635 0 0 -125 0 -125 -526 0 c-381 0 -538 -3
-567 -12 -58 -17 -142 -98 -161 -155 -9 -26 -16 -57 -16 -70 l0 -23 765 0 765
0 0 385 0 385 -635 0 -635 0 0 125 0 125 523 0 c574 0 582 1 656 59 46 36 91
120 91 168 l0 33 -765 0 -765 0 0 -385z"/>
<path d="M4560 640 l0 -641 128 3 127 3 5 497 5 496 238 -293 c131 -161 246
-300 256 -309 15 -14 36 -16 117 -14 l99 3 255 314 255 313 3 -506 2 -506 120
0 120 0 0 640 0 640 -172 0 -173 0 -255 -315 c-140 -173 -257 -315 -260 -315
-3 0 -120 141 -260 314 l-255 315 -177 0 -178 1 0 -640z"/>
<path d="M6507 1243 c9 -61 42 -121 86 -159 76 -65 81 -65 703 -62 551 3 560
3 599 25 75 40 128 113 141 192 l7 41 -771 0 -771 0 6 -37z"/>
<path d="M8294 1239 c13 -80 68 -154 146 -195 33 -18 71 -19 583 -22 l547 -3
0 -70 c0 -85 -18 -132 -62 -159 -32 -19 -49 -20 -625 -20 l-593 0 0 -385 0
-385 130 0 130 0 0 255 0 255 193 0 192 0 255 -255 255 -255 190 0 190 0 -255
255 -255 255 146 0 c166 0 213 11 277 66 22 19 51 55 64 82 22 45 23 57 26
335 l3 287 -772 0 -772 0 7 -41z"/>
<path d="M10080 1247 c0 -48 45 -132 91 -168 65 -51 109 -59 335 -59 l204 0 2
-507 3 -508 130 0 130 0 3 507 2 507 223 3 c207 3 225 5 263 25 82 44 143 129
144 201 l0 32 -765 0 -765 0 0 -33z"/>
<path d="M0 757 c0 -7 7 -37 16 -66 18 -61 69 -123 128 -154 41 -22 47 -22
605 -25 646 -3 629 -5 712 78 44 44 79 118 79 167 0 11 -139 13 -770 13 -631
0 -770 -2 -770 -13z"/>
<path d="M1790 747 c0 -88 83 -195 172 -222 73 -21 356 -21 421 1 90 30 154
107 172 207 l7 37 -386 0 -386 0 0 -23z"/>
<path d="M6502 388 l3 -383 128 -3 127 -3 0 256 0 255 510 0 510 0 0 -255 0
-255 130 0 130 0 0 385 0 385 -770 0 -770 0 2 -382z"/>
<path d="M11380 301 c-115 -61 -100 -239 24 -286 53 -20 98 -15 147 18 97 64
88 222 -15 271 -45 21 -113 20 -156 -3z m136 -18 c39 -19 74 -74 74 -118 0
-140 -185 -185 -244 -60 -32 67 -5 142 65 177 43 22 59 22 105 1z"/>
<path d="M11400 165 c0 -78 3 -95 15 -95 11 0 15 11 15 40 0 53 22 53 51 0 14
-24 30 -40 41 -40 20 0 16 12 -15 55 -14 18 -13 22 9 42 49 45 15 93 -66 93
l-50 0 0 -95z m98 38 c3 -20 -1 -23 -32 -23 -32 0 -36 3 -36 26 0 23 3 25 33
22 24 -2 33 -8 35 -25z"/>
<path d="M0 247 c0 -7 7 -37 16 -66 18 -61 69 -123 128 -154 41 -22 44 -22
626 -22 l585 0 47 27 c25 16 60 45 78 65 27 34 60 115 60 150 0 11 -139 13
-770 13 -631 0 -770 -2 -770 -13z"/>
</g>
</svg>
